<?xml version="1.0" encoding="utf-8"?>
<!-- Generator: Adobe Illustrator 23.0.1, SVG Export Plug-In . SVG Version: 6.00 Build 0)  -->
<svg version="1.0" id="Calque_1" xmlns="http://www.w3.org/2000/svg" xmlns:xlink="http://www.w3.org/1999/xlink" x="0px" y="0px"
	 viewBox="0 0 794.2 418.2" style="enable-background:new 0 0 794.2 418.2;" xml:space="preserve">
<style type="text/css">
	.st0{fill:#0096D6;}
</style>
<g>
	<g>
		<path class="st0" d="M332.1,144v47.8c0,7.5-2.1,13.3-6.3,17.3c-4.2,4.1-8.9,6.1-15.6,6.1c-6.8,0-11.6-2-15.7-6.1
			c-4.2-4.1-6.3-9.9-6.3-17.3V144h13v47.8c0,4.3,0.8,7.4,2.5,9.5c1.7,2,3.4,3,6.4,3c3.1,0,4.8-1,6.4-2.9c1.7-1.9,2.5-5.1,2.5-9.6
			V144H332.1z"/>
		<path class="st0" d="M390,214.3h-13l-20.4-44.9l-0.3,0.1v44.8h-13.1V144h13.1l20.4,44.9l0.3-0.1V144h13V214.3z"/>
		<path class="st0" d="M416.1,214.3h-13V144h13V214.3z"/>
		<path class="st0" d="M449.4,196.3l0.5,2.7h0.3l0.5-2.6l11.1-52.5h13.7l-18.7,70.3h-13.6L424.6,144h13.7L449.4,196.3z"/>
		<path class="st0" d="M518.9,183.4h-22.4v19.9h26.4v11h-39.4V144h39.3v11h-26.3v17.5h22.4V183.4z"/>
		<path class="st0" d="M545.9,186.3v27.9h-13V144h21.8c6.6,0,11.7,1.8,15.5,5.5c3.7,3.7,5.6,8.7,5.6,15.2c0,3.7-0.8,6.8-2.3,9.5
			c-1.6,2.7-3.8,4.8-6.8,6.3c3.4,1.2,5.9,3.2,7.4,6.1c1.5,2.8,2.3,6.4,2.3,10.6v5c0,1.9,0.2,4,0.6,6.2c0.4,2.2,1.2,3.8,2.2,4.8v1
			h-13.5c-1.1-1-1.7-2.7-2-5c-0.3-2.3-0.4-4.7-0.4-7.1v-4.8c0-3.5-0.7-6.2-2-8.2c-1.4-1.9-3.3-2.9-5.8-2.9H545.9z M545.9,175.4h8.7
			c2.7,0,4.7-0.9,6.1-2.6c1.4-1.7,2.1-4.1,2.1-7.3c0-3.2-0.7-5.8-2.1-7.7c-1.4-1.9-3.4-2.8-6-2.8h-8.8V175.4z"/>
		<path class="st0" d="M617.2,195.9c0-2.7-0.7-4.9-2-6.5c-1.3-1.6-3.7-3.2-7.1-4.7c-6.9-2.5-12.1-5.4-15.6-8.7
			c-3.5-3.2-5.2-7.8-5.2-13.6c0-5.8,2-10.4,6.1-14.1c4-3.6,9.2-5.4,15.4-5.4c6.4,0,11.5,2,15.5,6.1c4,4,5.9,9.1,5.8,15.3l-0.1,0.3
			h-12.7c0-3.2-0.8-5.8-2.3-7.8c-1.5-2-3.7-3-6.5-3c-2.6,0-4.6,0.8-6.1,2.5c-1.5,1.7-2.2,3.7-2.2,6.2c0,2.3,0.8,4.2,2.4,5.7
			c1.6,1.5,4.4,3.2,8.4,5c6.3,2.3,11.1,5.1,14.3,8.6c3.2,3.5,4.8,8.1,4.8,14c0,6.1-1.9,10.8-5.8,14.3c-3.9,3.4-9,5.2-15.4,5.2
			c-6.4,0-11.9-2-16.5-5.9c-4.7-3.9-6.9-9.5-6.8-16.8l0.1-0.3h12.7c0,4.3,0.9,7.5,2.6,9.4c1.7,1.9,4.4,2.8,7.9,2.8
			c2.8,0,4.8-0.8,6.1-2.3C616.5,200.6,617.2,198.6,617.2,195.9z"/>
		<path class="st0" d="M654.4,214.3h-13V144h13V214.3z"/>
		<path class="st0" d="M705.5,154.9h-15v59.3h-13v-59.3h-14.9v-11h43V154.9z"/>
		<path class="st0" d="M749.6,183.4h-22.4v19.9h26.4v11h-39.4V144h39.3v11h-26.3v17.5h22.4V183.4z M734.1,126.1h13.7l0.1,0.3
			L736.5,139l-10.5,0L734.1,126.1z"/>
	</g>
	<path class="st0" d="M203.7,228.2c0,25.6,0,58.6,0,58.7c0,26.6-21.6,48.2-48.2,48.2c-0.2,0-0.3,0-0.5,0v0c0,0,0,0,0,0c0,0,0,0,0,0
		v0c-0.2,0-0.3,0-0.5,0c-26.6,0-48.2-21.7-48.2-48.2c0-0.1,0-33.1,0-58.7H92l0,43.8c0,8.8,0,14.7,0,14.8c0,34.4,28,62.4,62.4,62.4
		c0.2,0,0.3,0,0.4,0c0.1,0,0.3,0,0.4,0c34.4,0,62.4-28,62.4-62.4c0-0.1,0-6,0-14.8l0-43.8H203.7z"/>
	
		<rect x="64.2" y="172.2" transform="matrix(-1 1.059782e-10 -1.059782e-10 -1 310.3217 358.37)" class="st0" width="181.9" height="14"/>
</g>
<g>
	<path d="M288.2,298.4v-70.3h20.2c6.8,0,12.5,2.7,17,8.2c4.5,5.5,6.7,12.5,6.7,21.1v11.8c0,8.6-2.2,15.6-6.7,21
		c-4.5,5.4-10.1,8.2-17,8.2H288.2z M301.2,239.1v48.4h6.4c3.6,0,6.4-1.7,8.4-5c2-3.3,3-7.8,3-13.3v-11.9c0-5.5-1-9.9-3-13.2
		c-2-3.3-4.8-5-8.4-5H301.2z"/>
	<path d="M378.8,267.6h-22.4v19.9h26.4v11h-39.4v-70.3h39.3v11h-26.3v17.5h22.4V267.6z"/>
	<path d="M429.1,287.5h22.7v11h-35.8v-70.3h13.1V287.5z"/>
	<path d="M470.7,258.3h0.3l11.1-30.1h14.2l-19.1,45.3v25h-13v-25.9l-18.8-44.4h14.3L470.7,258.3z"/>
	<path d="M546.3,273.2c0,8.2-2.1,14.7-6.4,19.3c-4.2,4.6-9.9,6.9-17,6.9c-7.1,0-12.7-2.3-16.9-6.9c-4.2-4.6-6.3-11.1-6.3-19.3v-19.7
		c0-8.2,2.1-14.6,6.3-19.3c4.2-4.7,9.8-7,16.9-7c7,0,12.7,2.3,17,7s6.4,11.1,6.4,19.3V273.2z M533.4,253.4c0-5-0.9-8.8-2.7-11.4
		c-1.8-2.6-4.4-3.8-7.7-3.8c-3.4,0-6,1.3-7.7,3.8c-1.7,2.5-2.6,6.4-2.6,11.4v19.8c0,5.1,0.9,8.9,2.6,11.5c1.7,2.5,4.3,3.8,7.7,3.8
		c3.4,0,5.9-1.3,7.7-3.8c1.8-2.5,2.7-6.4,2.7-11.5V253.4z"/>
	<path d="M604.4,298.4h-13L571,253.5l-0.3,0.1v44.8h-13.1v-70.3h13.1l20.4,44.9l0.3-0.1v-44.8h13V298.4z"/>
	<path d="M232,228.2c0,25.5,0,58.4,0,58.7c0,42.2-34.3,76.5-76.5,76.5c-0.1,0-0.3,0-0.4,0v0c0,0,0,0,0,0c0,0,0,0,0,0v0
		c-0.1,0-0.3,0-0.4,0c-42.2,0-76.5-34.3-76.5-76.5c0-0.3,0-33.3,0-58.7H63.9c0,25.4,0,58.4,0,58.7c0,49.9,40.6,90.6,90.6,90.6
		c0.2,0,0.3,0,0.5,0c0.2,0,0.3,0,0.5,0c49.9,0,90.6-40.6,90.6-90.6c0-0.3,0-33.3,0-58.7H232z"/>
	<path d="M175.3,228.2c0,26,0,58.1,0,58.2c0,11.2-9,20.3-20.2,20.3v0l-0.1,0l-0.1,0v0c-11.1-0.1-20.2-9.2-20.2-20.3
		c0-0.1,0-32.2,0-58.2h-14.2c0,26,0,58.1,0,58.2c0,19,15.5,34.5,34.5,34.5v0c0,0,0,0,0,0c0,0,0,0,0,0v0c19,0,34.5-15.5,34.5-34.5
		c0-0.1,0-32.2,0-58.2H175.3z"/>
	<rect x="64.2" y="200.2" transform="matrix(-1 1.059831e-10 -1.059831e-10 -1 310.3217 414.4452)" width="181.9" height="14"/>
	<path d="M250.4,68.8c0,0-0.3-0.5-0.9-1.2c-0.6-0.7-2-1.5-2.8-2.2c-0.7-0.7-1.5-1.8-2-2.1c-0.4-0.3-1.2-1.6-1.6-1.9
		c-0.4-0.3-0.9-2.5-1-2.7c0-0.2-0.2-0.9-0.9-1.2c-0.4-0.2-1.4-0.8-2-1.3c-0.6-0.5-2.3-2.1-2.3-2.1s-0.4-2.6-1.1-4
		c-0.6-1.4-0.9-1.9-1.2-2.5c-0.3-0.5-0.5-0.6-0.6-1.5c0,0-0.9-0.1-1.7,0.5c0,0-1.7-1.3-3.4-2.3c-1.7-1-3.7-2.1-4.5-2.2
		c-0.8-0.2-1.9-0.8-2.3-1.2c0,0-1.2-0.1-2.2,0.1c-0.7,0.1-3,0.3-4.3,0.5c-1.2,0.2-4.3,0.7-5,0.7c-1.5,0.1-1.8,0.2-4,0.6
		c0,0-1.7,0.3-2.3,0.5c-0.6,0.2-2.5,1-3.8,1.1c-1.4,0.2-2.9,0.2-4.6,0.5c-0.8,0.1-3.7,1.3-5.1,1.6c-0.6,0.2-1.4,0.3-1.4,0.3
		s0.3,1,1,1.1c0,0-0.4,0.9-1.3,1.3c-0.9,0.5-1.9,0.9-3.2,1.4c-1.3,0.4-3.4,1.3-3.9,1.7c0,0,0.4,0.8,1.2,1.2c0,0,0.2,0.1-0.9,0.7
		c-1.1,0.6-3.7,1.7-4.8,2.2c-1.2,0.5-2.8,1.5-3.6,1.9c-1.1,0.6-1.2,0.6-2.3,1.3c-1.1,0.6-0.5,0.6-0.5,0.6s0.5,0.1,1.3,0.2
		c0.8,0.1,1.2,0.4,1.2,0.4s0.1,0.4-0.5,0.9c-0.5,0.5-1.3,1.5-3.1,2.8c-0.9,0.6-1.7,1.3-2.7,2c-1,0.7-2,1.9-2.4,2.1l1.1,0.9L166,70
		c-0.5,0.3-1,0.6-1.8,0.9c-0.8,0.4-7.9,1.3-16,1.2c-13.6-0.2-17.4-1.9-24.3-2.3c-7-0.3-12.1,1.2-18.5,3.1c-1.2,0.4-2.2,0.8-3,1.1
		c-2.7,0.6-5.4,1.3-7.8,2.2c-8.8,3.4-24.2,16.1-28.6,18c-4.3,1.8-6.7,1.9-9.7,1.5c-3-0.4-4.2-1.1-4.2-1.1s-1.5-3.3-3.3-4.6
		c-2.3-1.7-8-3.7-8-3.7s-1,3.7,1,7.3c2.4,4.3,7.2,4,8.9,4.7c3,1.2,10.2,2.7,16.3,0.2c5.5-2.2,11-5.8,14.9-8
		c3.9-2.2,10.2-4.1,15.5-4.7c-0.2,0.9-0.5,1.8-0.8,2.6c-1.5,4.5-7,14.1-8.1,15.7c-1.3,1.9-6.4,8.1-7.3,8.8c-0.9,0.8-3.1,1.6-5.8,2.1
		c-3,0.6-11.6,1.4-11.6,1.4s-1.5,7.7-3.4,12.4c-0.8,1.9-2.6,5.7-2.6,5.7s3.2,3,4.2,6.8c0.5,1,1.3,2.5,2,3v13.3h0v0.4h181.9v-14h0
		c0.3-1.1,0.8-3.5-1.3-4.5c-2.7-1.3-0.5-2.3-6.8-4.7c-1.8-0.7-4.8-1.6-5.8-2.5c-1-0.8-6.5-8.4-9.2-11.7c-2.7-3.2-8.3-10.6-8.3-10.6
		l-1.2-2.9l0.2-2.2c0.3-0.4,0.7-0.7,1-1.1c1-1.1,2.5-2.6,2.9-3.5c1-2.1,0.7-0.1,1.3-1.2c0.5-0.9,2.3-1.9,3.1-2.4
		c0.8-0.5,1.9-1.9,1.9-1.9s0,0.8,0.3,1.7c0,0,0.5-0.4,1.4-1.5c0.9-1.1,0.6-1.2,1.6-2.2c1.1-1,1.8-3.1,2.5-4.5c0.7-1.3,1.1-1.7,1.3-2
		c0,0,0.4,1.1,0.7,1.8c0,0,0.7-0.7,1-1.3c0.3-0.7,0.5-1.5,1-2.3c0.5-0.8,0.8-1.8,1.3-2c0.5-0.2,1.4-0.8,2.4-0.8
		c0.7,0,1.7,0.4,2.6,0.6c0.8,0.2,1.2-0.2,1.8,0.6c0.6,0.8,1.4,1.2,1.4,1.2s0-0.1,0.7-0.5c0.7-0.4,0.8-0.4,1.4-0.8
		c0.7-0.5,0.5-0.7,1-1.2c0.5-0.5,0.8-1,1.1-1.9c0.2-0.9-0.2-1.4,0.3-1.8c0.4-0.4,1.3-0.4,1.7-1.4c0.4-1,0.3-1.2,0.5-1.3
		c0.2-0.2,0.3-0.9,0.3-0.9s1.2-1,1.4-1.8c0.2-0.8,0.3-1.1,0.7-1.5C252.3,70.9,252,69.8,250.4,68.8z M155.7,115.1
		c1.3,0.6,4.4,2,7.9,3.3c0.3,0.9,0.6,2.2,0.5,4c-0.3,4.5-4.8,10.1-4.8,10.1s2.3,5.6,2.9,6.4c0.6,0.8,2.7,2.5,3.4,3.8
		c0.2,0.4,0.5,0.9,0.6,1.4h-12.3c0.2-1.7-0.9-2.4-1.2-2.7c-0.7-0.7-1.3-2-2.9-2.6c-5.7-2-5.7-1.2-7.3-2.5c-1.1-0.9-4-2.8-4.6-4
		c-0.6-1.2-1.8-6.4-1.8-11c0-2.7-0.2-5.3-0.4-6.9C141,113.6,149.3,112.3,155.7,115.1z M70.8,127.3c1.8-0.8,5.9,0.8,10,0.1
		c6.2-1.1,15.1-4.2,18.1-5.6c2.7-1.2,7.6-5.8,9.1-7.1c1.5-1.2,3-1.6,3-1.6s1.8,1.9,5.4,5.1c3.6,3.2,4.9,4.7,6.1,5.8
		c1.2,1,2.8,3.2,3,4c1,3.2,0.6,8.5,0.6,8.5s5.7,2,7.5,3.6c1.3,1.1,2.4,3,2.9,4H78.6c0.1-1,0.2-3.1-1.9-3.8c-1.5-0.6-1.2-1.2-4.4-2.3
		c-1.3-0.5-2-1-2.7-2.7c-0.6-1.7-0.7-4.5-0.7-4.5S69.2,127.9,70.8,127.3z M214.8,132.7c0,0,5.9,2.2,7.3,4.2c0.9,1.3,6.2,2.8,6.2,2.8
		s1.6,0.1,3.7,2c1.6,1.5,2.1,2.1,3.1,2.4h-53.8c0.2-0.9,0.2-2.3-1.1-3.1c-0.9-0.5-1.6-1.4-2.6-1.9c-3.7-1.8-4.1-1.1-5.7-2.4
		c-0.9-0.6-1.5-3.5-1.5-3.5s6.8-6.7,8.1-8.4c1.6-2.1,2.3-3,3-4c5.1-0.5,10.5-1.4,12.3-2.4c0.5-0.3,1-0.6,1.4-0.9
		c0.6,0.3,1.1,0.6,1.5,0.9c2.7,1.6,9.6,4.5,12,6.4C211.4,126.9,214.8,132.7,214.8,132.7z"/>
</g>
</svg>
